<svg version="1.1" id="Layer_1" xmlns="http://www.w3.org/2000/svg" xmlns:xlink="http://www.w3.org/1999/xlink" x="0px" y="0px"
	 width="100%" viewBox="0 0 1024 1024" enable-background="new 0 0 1024 1024" xml:space="preserve">
<path fill="#EFC75E" opacity="1.000000" stroke="none" 
	d="
M442.000000,0.999995 
	C490.020905,1.000000 538.041809,1.000000 586.228149,1.346278 
	C592.948669,2.812647 599.583984,3.592719 606.043701,5.116930 
	C625.002136,9.590327 643.953552,14.120865 662.791077,19.072592 
	C686.958435,25.425381 709.978699,35.038815 732.336914,45.979355 
	C750.515930,54.874851 767.952271,65.283966 785.755798,74.952171 
	C804.456787,85.107758 821.094604,98.127777 837.295532,111.776299 
	C845.184204,118.422119 853.211304,124.904755 861.051697,131.606400 
	C867.056152,136.738678 873.505249,141.543655 878.642944,147.461075 
	C894.100830,165.264725 908.803040,183.723175 924.200989,201.580460 
	C938.747559,218.450363 949.890625,237.612778 960.639832,256.819885 
	C971.645264,276.484955 981.188904,297.102509 989.724121,317.977112 
	C997.909180,337.995300 1005.182129,358.563995 1010.643433,379.468811 
	C1016.175720,400.645447 1018.982605,422.532990 1023.074219,444.091949 
	C1023.213013,444.823456 1024.335815,445.368225 1025.000000,446.000000 
	C1025.000000,489.687561 1025.000000,533.375122 1024.660400,577.198364 
	C1023.892029,578.006165 1023.178162,578.638611 1023.078003,579.356628 
	C1021.995911,587.116089 1021.512512,594.995178 1019.896851,602.636719 
	C1016.214600,620.051697 1012.318054,637.435730 1007.909607,654.679260 
	C1001.165344,681.059082 991.316040,706.393921 979.426331,730.818604 
	C970.346191,749.471680 960.004089,767.518127 950.003723,785.713623 
	C939.691772,804.475891 926.488647,821.213257 912.862976,837.624939 
	C906.062622,845.815674 899.259521,854.005310 892.350830,862.104370 
	C887.550659,867.731628 883.009155,873.686462 877.576294,878.644836 
	C865.942749,889.262146 853.992371,899.554749 841.823303,909.556396 
	C829.859253,919.389648 818.005676,929.517639 805.123535,938.033630 
	C788.379517,949.102539 770.954346,959.239136 753.280273,968.772034 
	C739.333862,976.294373 724.542603,982.243408 710.172668,988.989380 
	C688.404358,999.208496 665.441223,1006.094421 642.231384,1011.753540 
	C622.385254,1016.592590 602.025085,1019.320129 581.909790,1023.074768 
	C581.178894,1023.211182 580.632446,1024.335938 580.000000,1025.000000 
	C536.645752,1025.000000 493.291534,1025.000000 449.801697,1024.660889 
	C449.160767,1023.905273 448.698151,1023.197815 448.143707,1023.116516 
	C440.720642,1022.027771 433.200775,1021.433594 425.869232,1019.920532 
	C409.385437,1016.518555 392.907654,1013.014771 376.583313,1008.929504 
	C348.587921,1001.923340 321.808380,991.333679 295.915253,978.797791 
	C277.114655,969.695679 258.918396,959.283997 240.812195,948.833374 
	C230.860611,943.089355 221.354980,936.450073 212.183441,929.507507 
	C200.083664,920.348389 188.396347,910.630371 176.745316,900.896912 
	C167.787216,893.413269 158.414322,886.220215 150.551651,877.677673 
	C137.445206,863.438171 125.678169,847.975403 112.836182,833.480408 
	C97.285774,815.928467 84.525002,796.392578 72.842278,776.294495 
	C62.079411,757.778870 53.201424,738.150818 43.846951,718.841370 
	C40.012409,710.926086 37.003044,702.601196 33.807434,694.389038 
	C30.679644,686.351074 27.521486,678.307190 24.868982,670.106689 
	C21.628212,660.087463 18.891254,649.905029 15.956115,639.787476 
	C15.060860,636.701416 14.055456,633.632812 13.406069,630.493042 
	C11.942303,623.415649 10.669458,616.298889 9.288431,609.173889 
	C9.257935,609.149658 9.191795,608.935242 9.159487,608.955505 
	C9.127177,608.975769 9.117085,608.900146 9.073453,608.523193 
	C7.810853,598.826599 6.591885,589.506897 5.209391,579.904663 
	C4.903498,579.457458 4.761132,579.292786 4.563826,578.935730 
	C4.345043,578.499695 4.116300,578.378967 3.768364,578.284180 
	C3.714068,578.187195 3.537891,578.051697 3.510594,577.586792 
	C2.982631,564.802551 2.497227,552.482483 1.943163,540.165466 
	C1.910122,539.430969 1.327098,538.721252 0.999999,538.000000 
	C1.000000,521.979126 1.000000,505.958221 1.368265,489.243896 
	C2.125555,479.016937 2.514579,469.483459 2.992168,459.524231 
	C3.720749,453.143280 4.433751,447.194641 4.969778,441.230103 
	C5.235035,438.278503 4.841328,435.240173 5.341150,432.343842 
	C6.045182,428.264130 7.457619,424.311584 8.286618,420.247437 
	C9.574250,413.934784 10.410954,407.525482 11.829082,401.245300 
	C13.803633,392.500946 16.138453,383.837952 18.660332,375.031738 
	C21.323793,367.953979 23.749935,361.016632 25.912628,353.998108 
	C26.684662,351.492615 26.818760,348.790588 27.161911,345.861633 
	C27.498472,344.677704 27.917164,343.810394 28.611938,342.776886 
	C29.902573,340.229309 30.956863,337.863953 31.924837,335.463837 
	C36.284859,324.653015 40.620422,313.832306 44.982819,302.633850 
	C46.721855,298.839691 48.477497,295.443848 50.157558,292.010986 
	C55.620430,280.848694 60.811134,269.544525 66.585243,258.546234 
	C70.607910,250.883987 75.409996,243.630478 79.875618,236.201416 
	C83.630295,229.955093 86.964577,223.396545 91.270447,217.555237 
	C97.429512,209.199936 104.367989,201.423096 110.853935,193.303589 
	C116.164940,186.654968 121.203773,179.788010 126.553040,173.171249 
	C129.511124,169.512268 132.831284,166.142639 136.038010,162.688812 
	C141.201675,157.127258 146.177444,151.364471 151.652802,146.125931 
	C158.289383,139.776382 165.473694,134.002625 172.201706,127.743973 
	C175.707993,124.482285 178.335678,120.190269 182.074509,117.281929 
	C190.325867,110.863426 199.062271,105.071632 207.539581,98.939545 
	C215.285599,93.336441 222.625839,87.097221 230.726425,82.076591 
	C243.650330,74.066528 256.785431,66.303154 270.322327,59.398289 
	C290.383759,49.165401 310.558716,39.025242 331.291504,30.283245 
	C345.581848,24.257727 360.707397,19.892565 375.801331,16.170998 
	C396.645721,11.031582 417.815460,7.213823 438.830292,2.756742 
	C439.960205,2.517092 440.946716,1.601126 442.000000,0.999995 
M914.763000,417.721283 
	C912.817749,410.824860 910.968201,403.899597 908.902100,397.039581 
	C906.503601,389.075836 904.087341,381.109253 901.350342,373.258423 
	C899.426270,367.739594 897.024414,362.381531 894.709534,357.006104 
	C890.845886,348.034149 887.000610,339.050629 882.909790,330.181671 
	C880.784729,325.574371 878.404480,321.041840 875.700806,316.752075 
	C866.014282,301.383392 856.346863,285.994568 846.242554,270.900970 
	C841.776306,264.229370 836.434509,258.115936 831.216309,251.982101 
	C823.646667,243.084320 816.249634,233.976547 808.002197,225.735764 
	C799.184448,216.925140 789.642517,208.805847 780.090820,200.772171 
	C769.702148,192.034500 759.258240,183.297791 748.246338,175.384506 
	C737.800171,167.877838 727.027405,160.581375 715.613159,154.721680 
	C697.039734,145.186646 678.192322,135.962967 658.773254,128.364426 
	C641.807739,121.725960 623.984375,117.182632 606.367249,112.342354 
	C595.543823,109.368614 584.476990,107.012329 573.370850,105.408165 
	C561.463318,103.688271 549.392395,102.490654 537.373047,102.298973 
	C520.115967,102.023750 502.820801,102.473106 485.580322,103.360031 
	C472.770630,104.018997 459.960663,105.444847 447.263397,107.299706 
	C434.839691,109.114601 422.454773,111.472694 410.246979,114.401749 
	C400.133423,116.828331 390.234222,120.231682 380.366364,123.575073 
	C371.223145,126.672951 362.142944,130.013275 353.227478,133.710983 
	C344.540863,137.313766 335.969635,141.251343 327.582886,145.505524 
	C318.406250,150.160370 309.230621,154.921494 300.542816,160.409271 
	C289.829407,167.176559 279.390564,174.435974 269.254089,182.043671 
	C258.184418,190.351746 247.197708,198.858109 236.916077,208.102432 
	C227.616791,216.463486 219.235718,225.858917 210.603546,234.944336 
	C204.604294,241.258621 198.519394,247.544022 193.094147,254.338501 
	C185.604080,263.718933 178.701004,273.568024 171.542908,283.213654 
	C168.520020,287.287018 165.183212,291.166168 162.536743,295.470337 
	C159.199158,300.898499 156.456207,306.689911 153.393768,312.290192 
	C149.388168,319.615173 144.915482,326.716797 141.386383,334.261902 
	C137.288605,343.022858 133.992828,352.159088 130.353851,361.134460 
	C127.912178,367.156738 125.230240,373.096191 123.104370,379.228241 
	C120.390129,387.057434 118.056000,395.021912 115.691040,402.967682 
	C113.315033,410.950592 110.551399,418.874146 108.955803,427.019287 
	C106.904739,437.489441 105.540482,448.122437 104.435867,458.743042 
	C102.764641,474.811554 101.059181,490.907196 100.347221,507.034546 
	C99.821938,518.933289 100.611877,530.914795 101.280266,542.833374 
	C101.786736,551.864624 102.789032,560.887085 104.009430,569.853699 
	C105.088654,577.783142 106.710213,585.642090 108.207077,593.510376 
	C110.193779,603.953552 111.572189,614.584229 114.520294,624.755066 
	C118.401924,638.146484 123.093712,651.354431 128.285568,664.300964 
	C133.964996,678.463318 140.188889,692.447754 146.973923,706.113220 
	C152.206039,716.651001 158.263321,726.842957 164.699600,736.701721 
	C171.764389,747.523132 179.157852,758.219055 187.355789,768.190491 
	C199.380096,782.816162 211.495773,797.513123 224.970001,810.758057 
	C237.857956,823.426697 252.130188,834.806274 266.540039,845.772034 
	C279.417297,855.571472 292.945160,864.653992 306.871399,872.894531 
	C318.661560,879.871094 331.482544,885.090515 343.758514,891.264221 
	C366.997803,902.951538 391.734070,910.330811 416.751831,916.934998 
	C418.976074,917.522034 421.151398,918.394470 423.409637,918.735352 
	C433.278168,920.225159 443.162628,921.614441 453.053253,922.951782 
	C465.262268,924.602539 477.454620,927.226440 489.704468,927.554993 
	C518.858704,928.337158 548.076050,928.672607 577.008972,923.740540 
	C580.858154,923.084351 584.606201,921.852051 588.443726,921.105835 
	C593.065918,920.207092 597.739258,919.574951 602.379089,918.762390 
	C604.487793,918.393005 606.606262,917.992493 608.655029,917.385803 
	C612.519714,916.241455 616.307556,914.834961 620.180298,913.721558 
	C628.188110,911.419189 636.309509,909.482117 644.233154,906.926392 
	C650.220215,904.995239 655.982727,902.361694 661.827209,899.996277 
	C670.494324,896.488403 679.315247,893.301331 687.760193,889.319275 
	C698.274963,884.361267 708.604248,878.967957 718.768250,873.320984 
	C727.013306,868.740295 735.203369,863.937317 742.865112,858.459778 
	C753.561768,850.812622 763.909241,842.648193 774.098022,834.327820 
	C783.570740,826.592041 793.029846,818.762695 801.782166,810.242371 
	C811.512329,800.770081 820.441528,790.474548 829.701965,780.521118 
	C830.482422,779.682251 831.146973,778.732666 831.837158,777.813416 
	C838.005798,769.597229 844.286316,761.461609 850.294617,753.129761 
	C855.051819,746.532898 859.649902,739.805115 863.987305,732.926636 
	C867.478821,727.389648 870.522766,721.566589 873.678528,715.822815 
	C877.835205,708.257080 882.434692,700.877869 885.912354,693.006897 
	C894.888794,672.690552 904.096680,652.447876 909.197998,630.641052 
	C912.388855,617.000732 916.727600,603.617188 919.610657,589.920471 
	C922.039551,578.381653 923.547363,566.598633 924.665222,554.847900 
	C925.854309,542.347717 926.268799,529.763672 926.685669,517.205139 
	C926.855042,512.100708 926.227844,506.959534 925.806519,501.847961 
	C924.903198,490.888916 923.663391,479.952606 922.995117,468.980560 
	C922.202332,455.963654 920.291077,443.158813 917.207092,430.500519 
	C916.247131,426.560669 915.613770,422.541229 914.763000,417.721283 
z"/>
<path fill="#000000" opacity="1.000000" stroke="none" 
	d="
M4.618765,579.128174 
	C4.761132,579.292786 4.903498,579.457458 5.097508,580.341187 
	C4.210872,590.662476 7.329582,599.686462 9.117085,608.900146 
	C9.117085,608.900146 9.127177,608.975769 9.168060,609.020935 
	C9.208943,609.066101 9.318933,609.198120 9.318930,609.198120 
	C10.669458,616.298889 11.942303,623.415649 13.406069,630.493042 
	C14.055456,633.632812 15.060860,636.701416 15.956115,639.787476 
	C18.891254,649.905029 21.628212,660.087463 24.868982,670.106689 
	C27.521486,678.307190 30.679644,686.351074 33.807434,694.389038 
	C37.003044,702.601196 40.012409,710.926086 43.846951,718.841370 
	C53.201424,738.150818 62.079411,757.778870 72.842278,776.294495 
	C84.525002,796.392578 97.285774,815.928467 112.836182,833.480408 
	C125.678169,847.975403 137.445206,863.438171 150.551651,877.677673 
	C158.414322,886.220215 167.787216,893.413269 176.745316,900.896912 
	C188.396347,910.630371 200.083664,920.348389 212.183441,929.507507 
	C221.354980,936.450073 230.860611,943.089355 240.812195,948.833374 
	C258.918396,959.283997 277.114655,969.695679 295.915253,978.797791 
	C321.808380,991.333679 348.587921,1001.923340 376.583313,1008.929504 
	C392.907654,1013.014771 409.385437,1016.518555 425.869232,1019.920532 
	C433.200775,1021.433594 440.720642,1022.027771 448.143707,1023.116516 
	C448.698151,1023.197815 449.160767,1023.905273 449.333038,1024.660889 
	C299.738708,1025.000000 150.477402,1025.000000 1.000000,1025.000000 
	C1.000000,872.312500 1.000000,719.624939 1.400769,566.497559 
	C2.380323,570.055786 2.959109,574.053772 3.537892,578.051697 
	C3.537891,578.051697 3.714068,578.187195 3.799930,578.494385 
	C4.058947,579.070312 4.303272,579.179199 4.618765,579.128174 
z"/>
<path fill="#000000" opacity="1.000000" stroke="none" 
	d="
M441.531342,0.999995 
	C440.946716,1.601126 439.960205,2.517092 438.830292,2.756742 
	C417.815460,7.213823 396.645721,11.031582 375.801331,16.170998 
	C360.707397,19.892565 345.581848,24.257727 331.291504,30.283245 
	C310.558716,39.025242 290.383759,49.165401 270.322327,59.398289 
	C256.785431,66.303154 243.650330,74.066528 230.726425,82.076591 
	C222.625839,87.097221 215.285599,93.336441 207.539581,98.939545 
	C199.062271,105.071632 190.325867,110.863426 182.074509,117.281929 
	C178.335678,120.190269 175.707993,124.482285 172.201706,127.743973 
	C165.473694,134.002625 158.289383,139.776382 151.652802,146.125931 
	C146.177444,151.364471 141.201675,157.127258 136.038010,162.688812 
	C132.831284,166.142639 129.511124,169.512268 126.553040,173.171249 
	C121.203773,179.788010 116.164940,186.654968 110.853935,193.303589 
	C104.367989,201.423096 97.429512,209.199936 91.270447,217.555237 
	C86.964577,223.396545 83.630295,229.955093 79.875618,236.201416 
	C75.409996,243.630478 70.607910,250.883987 66.585243,258.546234 
	C60.811134,269.544525 55.620430,280.848694 50.157558,292.010986 
	C48.477497,295.443848 46.721855,298.839691 44.696693,302.767944 
	C43.838688,303.612091 42.989552,303.809631 42.776260,304.289673 
	C40.439312,309.549316 37.970535,314.768402 35.992672,320.165253 
	C33.237366,327.683441 30.869528,335.343689 28.335854,342.943115 
	C27.917164,343.810394 27.498472,344.677704 27.089752,346.245239 
	C25.596989,350.688934 23.817019,354.348846 22.657404,358.195709 
	C20.976156,363.772949 19.743221,369.485382 18.319073,375.140137 
	C16.138453,383.837952 13.803633,392.500946 11.829082,401.245300 
	C10.410954,407.525482 9.574250,413.934784 8.286618,420.247437 
	C7.457619,424.311584 6.045182,428.264130 5.341150,432.343842 
	C4.841328,435.240173 5.235035,438.278503 4.969778,441.230103 
	C4.433751,447.194641 3.720749,453.143280 2.677643,459.583405 
	C1.849703,460.045563 1.424851,460.022766 1.000000,460.000000 
	C1.000000,307.074371 1.000000,154.148758 1.000000,1.000000 
	C147.687485,1.000000 294.375092,1.000000 441.531342,0.999995 
z"/>
<path fill="#000000" opacity="1.000000" stroke="none" 
	d="
M580.468689,1025.000000 
	C580.632446,1024.335938 581.178894,1023.211182 581.909790,1023.074768 
	C602.025085,1019.320129 622.385254,1016.592590 642.231384,1011.753540 
	C665.441223,1006.094421 688.404358,999.208496 710.172668,988.989380 
	C724.542603,982.243408 739.333862,976.294373 753.280273,968.772034 
	C770.954346,959.239136 788.379517,949.102539 805.123535,938.033630 
	C818.005676,929.517639 829.859253,919.389648 841.823303,909.556396 
	C853.992371,899.554749 865.942749,889.262146 877.576294,878.644836 
	C883.009155,873.686462 887.550659,867.731628 892.350830,862.104370 
	C899.259521,854.005310 906.062622,845.815674 912.862976,837.624939 
	C926.488647,821.213257 939.691772,804.475891 950.003723,785.713623 
	C960.004089,767.518127 970.346191,749.471680 979.426331,730.818604 
	C991.316040,706.393921 1001.165344,681.059082 1007.909607,654.679260 
	C1012.318054,637.435730 1016.214600,620.051697 1019.896851,602.636719 
	C1021.512512,594.995178 1021.995911,587.116089 1023.078003,579.356628 
	C1023.178162,578.638611 1023.892029,578.006165 1024.660400,577.666992 
	C1025.000000,726.926941 1025.000000,875.853821 1025.000000,1025.000000 
	C876.979187,1025.000000 728.958252,1025.000000 580.468689,1025.000000 
z"/>
<path fill="#000000" opacity="1.000000" stroke="none" 
	d="
M1025.000000,445.531372 
	C1024.335815,445.368225 1023.213013,444.823456 1023.074219,444.091949 
	C1018.982605,422.532990 1016.175720,400.645447 1010.643433,379.468811 
	C1005.182129,358.563995 997.909180,337.995300 989.724121,317.977112 
	C981.188904,297.102509 971.645264,276.484955 960.639832,256.819885 
	C949.890625,237.612778 938.747559,218.450363 924.200989,201.580460 
	C908.803040,183.723175 894.100830,165.264725 878.642944,147.461075 
	C873.505249,141.543655 867.056152,136.738678 861.051697,131.606400 
	C853.211304,124.904755 845.184204,118.422119 837.295532,111.776299 
	C821.094604,98.127777 804.456787,85.107758 785.755798,74.952171 
	C767.952271,65.283966 750.515930,54.874851 732.336914,45.979355 
	C709.978699,35.038815 686.958435,25.425381 662.791077,19.072592 
	C643.953552,14.120865 625.002136,9.590327 606.043701,5.116930 
	C599.583984,3.592719 592.948669,2.812647 586.696777,1.346278 
	C732.927673,1.000000 878.855286,1.000000 1025.000000,1.000000 
	C1025.000000,149.020828 1025.000000,297.041748 1025.000000,445.531372 
z"/>
<path fill="#2F4748" opacity="1.000000" stroke="none" 
	d="
M3.510596,577.586792 
	C2.959109,574.053772 2.380323,570.055786 1.400769,566.028931 
	C1.000000,556.979126 1.000000,547.958191 0.999999,538.468628 
	C1.327098,538.721252 1.910122,539.430969 1.943163,540.165466 
	C2.497227,552.482483 2.982631,564.802551 3.510596,577.586792 
z"/>
<path fill="#254147" opacity="1.000000" stroke="none" 
	d="
M1.000000,460.468658 
	C1.424851,460.022766 1.849703,460.045563 2.589079,460.009155 
	C2.514579,469.483459 2.125555,479.016937 1.368265,488.775208 
	C1.000000,479.645782 1.000000,470.291534 1.000000,460.468658 
z"/>
<path fill="#232E3A" opacity="1.000000" stroke="none" 
	d="
M914.796997,418.139771 
	C915.613770,422.541229 916.247131,426.560669 917.207092,430.500519 
	C920.291077,443.158813 922.202332,455.963654 922.995117,468.980560 
	C923.663391,479.952606 924.903198,490.888916 925.806519,501.847961 
	C926.227844,506.959534 926.855042,512.100708 926.685669,517.205139 
	C926.268799,529.763672 925.854309,542.347717 924.665222,554.847900 
	C923.547363,566.598633 922.039551,578.381653 919.610657,589.920471 
	C916.727600,603.617188 912.388855,617.000732 909.197998,630.641052 
	C904.096680,652.447876 894.888794,672.690552 885.912354,693.006897 
	C882.434692,700.877869 877.835205,708.257080 873.678528,715.822815 
	C870.522766,721.566589 867.478821,727.389648 863.987305,732.926636 
	C859.649902,739.805115 855.051819,746.532898 850.294617,753.129761 
	C844.286316,761.461609 838.005798,769.597229 831.837158,777.813416 
	C831.146973,778.732666 830.482422,779.682251 829.701965,780.521118 
	C820.441528,790.474548 811.512329,800.770081 801.782166,810.242371 
	C793.029846,818.762695 783.570740,826.592041 774.098022,834.327820 
	C763.909241,842.648193 753.561768,850.812622 742.865112,858.459778 
	C735.203369,863.937317 727.013306,868.740295 718.768250,873.320984 
	C708.604248,878.967957 698.274963,884.361267 687.760193,889.319275 
	C679.315247,893.301331 670.494324,896.488403 661.827209,899.996277 
	C655.982727,902.361694 650.220215,904.995239 644.233154,906.926392 
	C636.309509,909.482117 628.188110,911.419189 620.180298,913.721558 
	C616.307556,914.834961 612.519714,916.241455 608.655029,917.385803 
	C606.606262,917.992493 604.487793,918.393005 602.379089,918.762390 
	C597.739258,919.574951 593.065918,920.207092 588.443726,921.105835 
	C584.606201,921.852051 580.858154,923.084351 577.008972,923.740540 
	C548.076050,928.672607 518.858704,928.337158 489.704468,927.554993 
	C477.454620,927.226440 465.262268,924.602539 453.053253,922.951782 
	C443.162628,921.614441 433.278168,920.225159 423.409637,918.735352 
	C421.151398,918.394470 418.976074,917.522034 416.751831,916.934998 
	C391.734070,910.330811 366.997803,902.951538 343.758514,891.264221 
	C331.482544,885.090515 318.661560,879.871094 306.871399,872.894531 
	C292.945160,864.653992 279.417297,855.571472 266.540039,845.772034 
	C252.130188,834.806274 237.857956,823.426697 224.970001,810.758057 
	C211.495773,797.513123 199.380096,782.816162 187.355789,768.190491 
	C179.157852,758.219055 171.764389,747.523132 164.699600,736.701721 
	C158.263321,726.842957 152.206039,716.651001 146.973923,706.113220 
	C140.188889,692.447754 133.964996,678.463318 128.285568,664.300964 
	C123.093712,651.354431 118.401924,638.146484 114.520294,624.755066 
	C111.572189,614.584229 110.193779,603.953552 108.207077,593.510376 
	C106.710213,585.642090 105.088654,577.783142 104.009430,569.853699 
	C102.789032,560.887085 101.786736,551.864624 101.280266,542.833374 
	C100.611877,530.914795 99.821938,518.933289 100.347221,507.034546 
	C101.059181,490.907196 102.764641,474.811554 104.435867,458.743042 
	C105.540482,448.122437 106.904739,437.489441 108.955803,427.019287 
	C110.551399,418.874146 113.315033,410.950592 115.691040,402.967682 
	C118.056000,395.021912 120.390129,387.057434 123.104370,379.228241 
	C125.230240,373.096191 127.912178,367.156738 130.353851,361.134460 
	C133.992828,352.159088 137.288605,343.022858 141.386383,334.261902 
	C144.915482,326.716797 149.388168,319.615173 153.393768,312.290192 
	C156.456207,306.689911 159.199158,300.898499 162.536743,295.470337 
	C165.183212,291.166168 168.520020,287.287018 171.542908,283.213654 
	C178.701004,273.568024 185.604080,263.718933 193.094147,254.338501 
	C198.519394,247.544022 204.604294,241.258621 210.603546,234.944336 
	C219.235718,225.858917 227.616791,216.463486 236.916077,208.102432 
	C247.197708,198.858109 258.184418,190.351746 269.254089,182.043671 
	C279.390564,174.435974 289.829407,167.176559 300.542816,160.409271 
	C309.230621,154.921494 318.406250,150.160370 327.582886,145.505524 
	C335.969635,141.251343 344.540863,137.313766 353.227478,133.710983 
	C362.142944,130.013275 371.223145,126.672951 380.366364,123.575073 
	C390.234222,120.231682 400.133423,116.828331 410.246979,114.401749 
	C422.454773,111.472694 434.839691,109.114601 447.263397,107.299706 
	C459.960663,105.444847 472.770630,104.018997 485.580322,103.360031 
	C502.820801,102.473106 520.115967,102.023750 537.373047,102.298973 
	C549.392395,102.490654 561.463318,103.688271 573.370850,105.408165 
	C584.476990,107.012329 595.543823,109.368614 606.367249,112.342354 
	C623.984375,117.182632 641.807739,121.725960 658.773254,128.364426 
	C678.192322,135.962967 697.039734,145.186646 715.613159,154.721680 
	C727.027405,160.581375 737.800171,167.877838 748.246338,175.384506 
	C759.258240,183.297791 769.702148,192.034500 780.090820,200.772171 
	C789.642517,208.805847 799.184448,216.925140 808.002197,225.735764 
	C816.249634,233.976547 823.646667,243.084320 831.216309,251.982101 
	C836.434509,258.115936 841.776306,264.229370 846.242554,270.900970 
	C856.346863,285.994568 866.014282,301.383392 875.700806,316.752075 
	C878.404480,321.041840 880.784729,325.574371 882.909790,330.181671 
	C887.000610,339.050629 890.845886,348.034149 894.709534,357.006104 
	C897.024414,362.381531 899.426270,367.739594 901.350342,373.258423 
	C904.087341,381.109253 906.503601,389.075836 908.902100,397.039581 
	C910.968201,403.899597 912.817749,410.824860 914.796997,418.139771 
M374.944885,329.312408 
	C369.176208,333.654755 363.072083,337.620331 357.697601,342.405426 
	C335.730499,361.963562 321.344299,385.889404 316.605591,415.247803 
	C315.586761,421.559906 316.466766,422.903870 322.768219,423.001923 
	C406.407440,424.303528 490.068054,420.796906 573.711853,424.773773 
	C603.634033,426.196472 633.681946,425.160126 663.669434,424.898560 
	C671.821106,424.827454 679.876709,425.247681 688.211365,423.385529 
	C701.950806,420.315826 715.589783,417.741974 728.536743,411.712250 
	C742.134277,405.379578 753.897278,396.663452 764.687317,386.586914 
	C774.197998,377.705048 782.076721,367.558197 788.264526,355.836243 
	C795.282471,342.541656 800.984375,329.106964 802.234619,314.008392 
	C802.810730,307.050873 801.958435,306.003571 795.018127,306.002655 
	C758.030701,305.997864 721.043274,305.974304 684.056030,306.060089 
	C681.659851,306.065643 679.264832,306.927795 676.870728,307.398956 
	C668.998230,308.948364 661.373657,312.098145 653.076111,310.864227 
	C648.193787,310.138184 643.283020,309.127899 638.381165,309.105408 
	C627.202759,309.054108 616.022461,309.736969 604.842163,309.759521 
	C561.023926,309.847931 517.204163,309.601837 473.387695,309.896484 
	C457.031738,310.006439 440.637756,308.426147 424.298950,311.846283 
	C411.626068,314.499054 399.148407,317.411499 387.404022,322.940460 
	C383.408173,324.821594 379.516968,326.925018 374.944885,329.312408 
M545.136353,460.390656 
	C543.908447,461.201996 542.777771,462.261658 541.437622,462.786407 
	C527.624207,468.195068 515.218689,475.906464 504.729950,486.341797 
	C497.330811,493.703217 490.510223,501.665009 483.702454,509.591583 
	C481.394867,512.278381 479.473907,515.499023 478.146332,518.786682 
	C474.624268,527.508728 468.425262,535.017761 466.847717,544.639832 
	C465.949493,550.118408 463.874542,555.415588 463.121063,560.903198 
	C462.342621,566.572632 464.221832,568.459229 469.934479,568.934326 
	C473.740234,569.250916 477.577881,569.272095 481.401337,569.275085 
	C512.542175,569.299438 543.683105,569.343018 574.823730,569.262634 
	C588.379333,569.227661 601.352356,565.734802 613.998901,561.343201 
	C620.739624,559.002380 627.112122,555.467468 633.424133,552.052429 
	C648.234558,544.039490 660.976562,533.438171 671.696716,520.435486 
	C674.002563,517.638611 676.581909,514.996460 678.451904,511.927582 
	C681.273743,507.296509 683.620544,502.372314 686.101929,497.538147 
	C692.272400,485.517120 698.702209,473.619995 699.104004,459.569763 
	C699.303711,452.587952 698.549377,451.489838 691.403625,451.486267 
	C658.930603,451.470123 626.455566,451.670990 593.985596,451.354340 
	C581.671631,451.234222 569.721069,452.805725 557.932190,456.038208 
	C553.845459,457.158783 549.875854,458.706879 545.136353,460.390656 
M268.677185,562.917542 
	C298.320221,562.917542 327.963623,562.993896 357.605835,562.835876 
	C362.088348,562.812012 366.567139,561.711609 371.044067,561.083801 
	C379.759247,559.861755 388.718597,559.714233 396.706726,555.254761 
	C397.092102,555.039612 397.738525,555.337646 398.183105,555.176025 
	C405.618103,552.472595 413.363434,550.370605 420.369812,546.814819 
	C426.720886,543.591553 432.558136,539.132751 438.090118,534.573486 
	C445.491150,528.473816 452.573212,521.949951 459.430664,515.238831 
	C465.707520,509.095917 469.419006,501.234467 473.359070,493.429291 
	C479.276031,481.707855 485.143555,470.119080 486.563660,456.819489 
	C487.349884,449.456177 486.140869,448.016235 478.613892,448.014221 
	C447.139008,448.005890 415.662750,447.844604 384.190216,448.114746 
	C376.052551,448.184570 367.923126,449.585480 359.797699,450.448212 
	C357.850922,450.654907 355.838135,450.892731 354.022339,451.565796 
	C346.699921,454.279968 339.155304,456.606232 332.232208,460.134277 
	C323.024200,464.826782 313.491486,469.503998 305.607544,476.015259 
	C295.753052,484.153870 285.729462,492.618622 279.365387,504.173676 
	C274.679016,512.682678 269.958923,521.196655 265.818542,529.974792 
	C262.869202,536.227722 260.835114,542.914734 258.434723,549.423584 
	C254.945999,558.883667 257.724121,562.895264 268.677185,562.917542 
M244.499680,625.999634 
	C240.995514,630.173401 237.351318,634.238586 234.014481,638.542114 
	C225.343384,649.725098 218.337204,661.812317 214.722672,675.634766 
	C213.408493,680.660339 212.724930,685.918640 210.839600,690.711182 
	C207.979156,697.982544 208.356064,699.022522 216.194504,698.992310 
	C246.169312,698.876831 276.150299,698.307312 306.116302,698.755371 
	C323.323883,699.012573 339.304535,695.149536 354.717438,688.153870 
	C380.490997,676.455933 399.190674,657.047913 413.449799,633.098511 
	C420.119354,621.896362 423.329712,609.268250 426.669617,596.789368 
	C428.417633,590.258362 426.188385,588.003967 419.523712,588.730774 
	C418.369873,588.856567 417.193756,588.792114 416.027924,588.791931 
	C397.702240,588.789307 379.372711,589.007690 361.052277,588.695190 
	C349.554138,588.499023 338.075226,587.246216 326.576202,586.996704 
	C322.080109,586.899109 317.489532,587.981934 313.059204,589.025024 
	C309.449493,589.874817 306.106567,592.060608 302.485352,592.622192 
	C289.484314,594.638245 278.249847,600.994751 267.353607,607.512817 
	C259.227783,612.373657 252.408051,619.417908 244.499680,625.999634 
z"/>
<path fill="#D3D5B0" opacity="1.000000" stroke="none" 
	d="
M28.611940,342.776886 
	C30.869528,335.343689 33.237366,327.683441 35.992672,320.165253 
	C37.970535,314.768402 40.439312,309.549316 42.776260,304.289673 
	C42.989552,303.809631 43.838688,303.612091 44.678680,303.149292 
	C40.620422,313.832306 36.284859,324.653015 31.924837,335.463837 
	C30.956863,337.863953 29.902573,340.229309 28.611940,342.776886 
z"/>
<path fill="#C5C7AA" opacity="1.000000" stroke="none" 
	d="
M18.660332,375.031738 
	C19.743221,369.485382 20.976156,363.772949 22.657404,358.195709 
	C23.817019,354.348846 25.596989,350.688934 27.171883,346.561890 
	C26.818760,348.790588 26.684662,351.492615 25.912628,353.998108 
	C23.749935,361.016632 21.323793,367.953979 18.660332,375.031738 
z"/>
<path fill="#D0D1BC" opacity="1.000000" stroke="none" 
	d="
M9.073453,608.523193 
	C7.329582,599.686462 4.210872,590.662476 5.261033,580.623779 
	C6.591885,589.506897 7.810853,598.826599 9.073453,608.523193 
z"/>
<path fill="#2F4748" opacity="1.000000" stroke="none" 
	d="
M4.563826,578.935730 
	C4.303272,579.179199 4.058947,579.070312 3.854226,578.591309 
	C4.116300,578.378967 4.345043,578.499695 4.563826,578.935730 
z"/>
<path fill="#D0D1BC" opacity="1.000000" stroke="none" 
	d="
M9.288434,609.173889 
	C9.318933,609.198120 9.208943,609.066101 9.200369,609.000671 
	C9.191795,608.935242 9.257935,609.149658 9.288434,609.173889 
z"/>
<path fill="#EFC75E" opacity="1.000000" stroke="none" 
	d="
M375.261414,329.119629 
	C379.516968,326.925018 383.408173,324.821594 387.404022,322.940460 
	C399.148407,317.411499 411.626068,314.499054 424.298950,311.846283 
	C440.637756,308.426147 457.031738,310.006439 473.387695,309.896484 
	C517.204163,309.601837 561.023926,309.847931 604.842163,309.759521 
	C616.022461,309.736969 627.202759,309.054108 638.381165,309.105408 
	C643.283020,309.127899 648.193787,310.138184 653.076111,310.864227 
	C661.373657,312.098145 668.998230,308.948364 676.870728,307.398956 
	C679.264832,306.927795 681.659851,306.065643 684.056030,306.060089 
	C721.043274,305.974304 758.030701,305.997864 795.018127,306.002655 
	C801.958435,306.003571 802.810730,307.050873 802.234619,314.008392 
	C800.984375,329.106964 795.282471,342.541656 788.264526,355.836243 
	C782.076721,367.558197 774.197998,377.705048 764.687317,386.586914 
	C753.897278,396.663452 742.134277,405.379578 728.536743,411.712250 
	C715.589783,417.741974 701.950806,420.315826 688.211365,423.385529 
	C679.876709,425.247681 671.821106,424.827454 663.669434,424.898560 
	C633.681946,425.160126 603.634033,426.196472 573.711853,424.773773 
	C490.068054,420.796906 406.407440,424.303528 322.768219,423.001923 
	C316.466766,422.903870 315.586761,421.559906 316.605591,415.247803 
	C321.344299,385.889404 335.730499,361.963562 357.697601,342.405426 
	C363.072083,337.620331 369.176208,333.654755 375.261414,329.119629 
z"/>
<path fill="#EEC75E" opacity="1.000000" stroke="none" 
	d="
M545.494568,460.225159 
	C549.875854,458.706879 553.845459,457.158783 557.932190,456.038208 
	C569.721069,452.805725 581.671631,451.234222 593.985596,451.354340 
	C626.455566,451.670990 658.930603,451.470123 691.403625,451.486267 
	C698.549377,451.489838 699.303711,452.587952 699.104004,459.569763 
	C698.702209,473.619995 692.272400,485.517120 686.101929,497.538147 
	C683.620544,502.372314 681.273743,507.296509 678.451904,511.927582 
	C676.581909,514.996460 674.002563,517.638611 671.696716,520.435486 
	C660.976562,533.438171 648.234558,544.039490 633.424133,552.052429 
	C627.112122,555.467468 620.739624,559.002380 613.998901,561.343201 
	C601.352356,565.734802 588.379333,569.227661 574.823730,569.262634 
	C543.683105,569.343018 512.542175,569.299438 481.401337,569.275085 
	C477.577881,569.272095 473.740234,569.250916 469.934479,568.934326 
	C464.221832,568.459229 462.342621,566.572632 463.121063,560.903198 
	C463.874542,555.415588 465.949493,550.118408 466.847717,544.639832 
	C468.425262,535.017761 474.624268,527.508728 478.146332,518.786682 
	C479.473907,515.499023 481.394867,512.278381 483.702454,509.591583 
	C490.510223,501.665009 497.330811,493.703217 504.729950,486.341797 
	C515.218689,475.906464 527.624207,468.195068 541.437622,462.786407 
	C542.777771,462.261658 543.908447,461.201996 545.494568,460.225159 
z"/>
<path fill="#EFC75E" opacity="1.000000" stroke="none" 
	d="
M268.206055,562.917603 
	C257.724121,562.895264 254.945999,558.883667 258.434723,549.423584 
	C260.835114,542.914734 262.869202,536.227722 265.818542,529.974792 
	C269.958923,521.196655 274.679016,512.682678 279.365387,504.173676 
	C285.729462,492.618622 295.753052,484.153870 305.607544,476.015259 
	C313.491486,469.503998 323.024200,464.826782 332.232208,460.134277 
	C339.155304,456.606232 346.699921,454.279968 354.022339,451.565796 
	C355.838135,450.892731 357.850922,450.654907 359.797699,450.448212 
	C367.923126,449.585480 376.052551,448.184570 384.190216,448.114746 
	C415.662750,447.844604 447.139008,448.005890 478.613892,448.014221 
	C486.140869,448.016235 487.349884,449.456177 486.563660,456.819489 
	C485.143555,470.119080 479.276031,481.707855 473.359070,493.429291 
	C469.419006,501.234467 465.707520,509.095917 459.430664,515.238831 
	C452.573212,521.949951 445.491150,528.473816 438.090118,534.573486 
	C432.558136,539.132751 426.720886,543.591553 420.369812,546.814819 
	C413.363434,550.370605 405.618103,552.472595 398.183105,555.176025 
	C397.738525,555.337646 397.092102,555.039612 396.706726,555.254761 
	C388.718597,559.714233 379.759247,559.861755 371.044067,561.083801 
	C366.567139,561.711609 362.088348,562.812012 357.605835,562.835876 
	C327.963623,562.993896 298.320221,562.917542 268.206055,562.917603 
z"/>
<path fill="#EEC75E" opacity="1.000000" stroke="none" 
	d="
M244.753174,625.744751 
	C252.408051,619.417908 259.227783,612.373657 267.353607,607.512817 
	C278.249847,600.994751 289.484314,594.638245 302.485352,592.622192 
	C306.106567,592.060608 309.449493,589.874817 313.059204,589.025024 
	C317.489532,587.981934 322.080109,586.899109 326.576202,586.996704 
	C338.075226,587.246216 349.554138,588.499023 361.052277,588.695190 
	C379.372711,589.007690 397.702240,588.789307 416.027924,588.791931 
	C417.193756,588.792114 418.369873,588.856567 419.523712,588.730774 
	C426.188385,588.003967 428.417633,590.258362 426.669617,596.789368 
	C423.329712,609.268250 420.119354,621.896362 413.449799,633.098511 
	C399.190674,657.047913 380.490997,676.455933 354.717438,688.153870 
	C339.304535,695.149536 323.323883,699.012573 306.116302,698.755371 
	C276.150299,698.307312 246.169312,698.876831 216.194504,698.992310 
	C208.356064,699.022522 207.979156,697.982544 210.839600,690.711182 
	C212.724930,685.918640 213.408493,680.660339 214.722672,675.634766 
	C218.337204,661.812317 225.343384,649.725098 234.014481,638.542114 
	C237.351318,634.238586 240.995514,630.173401 244.753174,625.744751 
z"/>
</svg>